<svg width="26" height="24" viewBox="0 0 26 24" fill="none" xmlns="http://www.w3.org/2000/svg">
<g id="Group 18">
<path id="Vector 1" d="M23.2857 7L25 7L25 13.6429C25 18.2584 21.2584 22 16.6429 22V22C12.0273 22 8.28571 18.2584 8.28571 13.6429L8.28571 7M8.28571 7L10.5714 9.30769L6 9.30769L8.28571 7Z" stroke="#FFF0DD" stroke-width="2" stroke-linecap="round" stroke-linejoin="round"/>
<path id="Vector 2" d="M2.71429 17L1 17L1 9.85715C1 5.51776 4.51776 2 8.85714 2V2C13.1965 2 16.7143 5.51776 16.7143 9.85715L16.7143 17M16.7143 17L14.4286 14.6923L19 14.6923L16.7143 17Z" stroke="#FF7C5C" stroke-width="2" stroke-linecap="round" stroke-linejoin="round"/>
</g>
</svg>
