<svg width="24" height="25" viewBox="0 0 24 25" fill="none" xmlns="http://www.w3.org/2000/svg">
<path d="M4.75 8.5H7.25" stroke="black" stroke-width="1.5" stroke-linecap="round" stroke-linejoin="round"/>
<path d="M12.75 8.5H19.25" stroke="black" stroke-width="1.5" stroke-linecap="round" stroke-linejoin="round"/>
<path d="M4.75 16.5H12.25" stroke="black" stroke-width="1.5" stroke-linecap="round" stroke-linejoin="round"/>
<path d="M17.75 16.5H19.25" stroke="black" stroke-width="1.5" stroke-linecap="round" stroke-linejoin="round"/>
<path d="M10 10.75C11.2426 10.75 12.25 9.74264 12.25 8.5C12.25 7.25736 11.2426 6.25 10 6.25C8.75736 6.25 7.75 7.25736 7.75 8.5C7.75 9.74264 8.75736 10.75 10 10.75Z" stroke="black" stroke-width="1.5" stroke-linecap="round" stroke-linejoin="round"/>
<path d="M15 18.75C16.2426 18.75 17.25 17.7426 17.25 16.5C17.25 15.2574 16.2426 14.25 15 14.25C13.7574 14.25 12.75 15.2574 12.75 16.5C12.75 17.7426 13.7574 18.75 15 18.75Z" stroke="black" stroke-width="1.5" stroke-linecap="round" stroke-linejoin="round"/>
</svg>
