<svg width="228" height="96" viewBox="0 0 228 96" fill="none" xmlns="http://www.w3.org/2000/svg">
<path d="M75.528 79V75.064C75.3147 75.4693 74.8347 76.056 74.088 76.824C73.3413 77.5707 72.3493 78.2533 71.112 78.872C69.896 79.4693 68.4667 79.768 66.824 79.768C64.2213 79.768 61.9707 79.128 60.072 77.848C58.1733 76.568 56.7013 74.872 55.656 72.76C54.632 70.648 54.12 68.3547 54.12 65.88C54.12 63.4053 54.632 61.112 55.656 59C56.7013 56.888 58.1733 55.192 60.072 53.912C61.9707 52.6107 64.2213 51.96 66.824 51.96C68.3813 51.96 69.736 52.1947 70.888 52.664C72.0613 53.1333 73.0213 53.688 73.768 54.328C74.536 54.968 75.08 55.576 75.4 56.152V52.728H86.664V79H75.528ZM65.224 65.88C65.224 66.8187 65.448 67.6827 65.896 68.472C66.344 69.24 66.952 69.848 67.72 70.296C68.488 70.744 69.3627 70.968 70.344 70.968C71.3253 70.968 72.1893 70.744 72.936 70.296C73.704 69.848 74.3013 69.24 74.728 68.472C75.176 67.6827 75.4 66.8187 75.4 65.88C75.4 64.9413 75.176 64.088 74.728 63.32C74.3013 62.5307 73.704 61.912 72.936 61.464C72.1893 60.9947 71.3253 60.76 70.344 60.76C69.3627 60.76 68.488 60.9947 67.72 61.464C66.952 61.912 66.344 62.5307 65.896 63.32C65.448 64.088 65.224 64.9413 65.224 65.88ZM104.081 93.08C102.332 93.08 100.529 92.9307 98.6735 92.632C96.8175 92.3547 95.0468 91.832 93.3615 91.064C91.6975 90.296 90.2682 89.1867 89.0735 87.736L95.5695 80.856C96.1028 81.4533 96.7322 82.008 97.4575 82.52C98.1828 83.0533 99.0468 83.48 100.049 83.8C101.052 84.1413 102.225 84.312 103.569 84.312C104.785 84.312 105.873 84.1307 106.833 83.768C107.794 83.4053 108.54 82.8293 109.073 82.04C109.628 81.272 109.906 80.28 109.906 79.064V78.488H121.042V79.704C121.042 82.648 120.284 85.112 118.77 87.096C117.276 89.08 115.25 90.5733 112.689 91.576C110.129 92.5787 107.26 93.08 104.081 93.08ZM109.906 79V75.064C109.692 75.4693 109.212 76.056 108.465 76.824C107.719 77.5707 106.727 78.2533 105.49 78.872C104.273 79.4693 102.844 79.768 101.201 79.768C98.5988 79.768 96.3482 79.128 94.4495 77.848C92.5508 76.568 91.0788 74.872 90.0335 72.76C89.0095 70.648 88.4975 68.3547 88.4975 65.88C88.4975 63.4053 89.0095 61.112 90.0335 59C91.0788 56.888 92.5508 55.192 94.4495 53.912C96.3482 52.6107 98.5988 51.96 101.201 51.96C102.759 51.96 104.113 52.1947 105.265 52.664C106.439 53.1333 107.399 53.688 108.146 54.328C108.914 54.968 109.458 55.576 109.778 56.152V52.728H121.042V79H109.906ZM99.6015 65.88C99.6015 66.8187 99.8255 67.6827 100.273 68.472C100.721 69.24 101.329 69.848 102.097 70.296C102.865 70.744 103.74 70.968 104.722 70.968C105.703 70.968 106.567 70.744 107.313 70.296C108.081 69.848 108.679 69.24 109.105 68.472C109.553 67.6827 109.778 66.8187 109.778 65.88C109.778 64.9413 109.553 64.088 109.105 63.32C108.679 62.5307 108.081 61.912 107.313 61.464C106.567 60.9947 105.703 60.76 104.722 60.76C103.74 60.76 102.865 60.9947 102.097 61.464C101.329 61.912 100.721 62.5307 100.273 63.32C99.8255 64.088 99.6015 64.9413 99.6015 65.88ZM137.819 93.08C136.07 93.08 134.267 92.9307 132.411 92.632C130.555 92.3547 128.784 91.832 127.099 91.064C125.435 90.296 124.006 89.1867 122.811 87.736L129.307 80.856C129.84 81.4533 130.47 82.008 131.195 82.52C131.92 83.0533 132.784 83.48 133.787 83.8C134.79 84.1413 135.963 84.312 137.307 84.312C138.523 84.312 139.611 84.1307 140.571 83.768C141.531 83.4053 142.278 82.8293 142.811 82.04C143.366 81.272 143.643 80.28 143.643 79.064V78.488H154.779V79.704C154.779 82.648 154.022 85.112 152.507 87.096C151.014 89.08 148.987 90.5733 146.427 91.576C143.867 92.5787 140.998 93.08 137.819 93.08ZM143.643 79V75.064C143.43 75.4693 142.95 76.056 142.203 76.824C141.456 77.5707 140.464 78.2533 139.227 78.872C138.011 79.4693 136.582 79.768 134.939 79.768C132.336 79.768 130.086 79.128 128.187 77.848C126.288 76.568 124.816 74.872 123.771 72.76C122.747 70.648 122.235 68.3547 122.235 65.88C122.235 63.4053 122.747 61.112 123.771 59C124.816 56.888 126.288 55.192 128.187 53.912C130.086 52.6107 132.336 51.96 134.939 51.96C136.496 51.96 137.851 52.1947 139.003 52.664C140.176 53.1333 141.136 53.688 141.883 54.328C142.651 54.968 143.195 55.576 143.515 56.152V52.728H154.779V79H143.643ZM133.339 65.88C133.339 66.8187 133.563 67.6827 134.011 68.472C134.459 69.24 135.067 69.848 135.835 70.296C136.603 70.744 137.478 70.968 138.459 70.968C139.44 70.968 140.304 70.744 141.051 70.296C141.819 69.848 142.416 69.24 142.843 68.472C143.291 67.6827 143.515 66.8187 143.515 65.88C143.515 64.9413 143.291 64.088 142.843 63.32C142.416 62.5307 141.819 61.912 141.051 61.464C140.304 60.9947 139.44 60.76 138.459 60.76C137.478 60.76 136.603 60.9947 135.835 61.464C135.067 61.912 134.459 62.5307 134.011 63.32C133.563 64.088 133.339 64.9413 133.339 65.88ZM168.133 79H156.805V52.728H168.133V56.6H167.973C168.186 56.1307 168.613 55.5333 169.253 54.808C169.914 54.0827 170.831 53.432 172.005 52.856C173.199 52.2587 174.682 51.96 176.453 51.96C177.647 51.96 178.778 52.152 179.845 52.536C180.911 52.92 181.69 53.2933 182.181 53.656L177.829 62.84C177.551 62.4347 177.029 62.0293 176.261 61.624C175.493 61.1973 174.543 60.984 173.413 60.984C172.133 60.984 171.098 61.272 170.309 61.848C169.541 62.4027 168.986 63.096 168.645 63.928C168.303 64.76 168.133 65.56 168.133 66.328V79ZM190.523 68.152C190.608 68.856 190.885 69.4747 191.355 70.008C191.845 70.52 192.485 70.9253 193.275 71.224C194.085 71.5013 195.035 71.64 196.123 71.64C197.189 71.64 198.192 71.5653 199.131 71.416C200.069 71.2453 200.901 71.0213 201.627 70.744C202.373 70.4667 202.96 70.1573 203.387 69.816L207.579 76.856C207.109 77.2613 206.405 77.688 205.467 78.136C204.528 78.584 203.237 78.968 201.595 79.288C199.973 79.608 197.893 79.768 195.355 79.768C192.411 79.768 189.765 79.2453 187.419 78.2C185.072 77.1547 183.216 75.5867 181.851 73.496C180.485 71.384 179.803 68.7493 179.803 65.592C179.803 63.032 180.379 60.728 181.531 58.68C182.683 56.6107 184.347 54.9787 186.523 53.784C188.699 52.568 191.333 51.96 194.427 51.96C197.392 51.96 199.963 52.4827 202.139 53.528C204.315 54.552 205.989 56.1093 207.163 58.2C208.336 60.2907 208.923 62.936 208.923 66.136C208.923 66.3067 208.912 66.648 208.891 67.16C208.891 67.672 208.869 68.0027 208.827 68.152H190.523ZM198.267 63.032C198.245 62.328 198.085 61.6987 197.787 61.144C197.509 60.5893 197.104 60.152 196.571 59.832C196.037 59.512 195.387 59.352 194.619 59.352C193.872 59.352 193.211 59.5013 192.635 59.8C192.059 60.0987 191.611 60.5253 191.291 61.08C190.971 61.6133 190.789 62.264 190.747 63.032H198.267ZM213.968 64.44L211.696 34.968H223.824L221.584 64.44H213.968ZM217.744 79.768C216.592 79.768 215.525 79.48 214.544 78.904C213.584 78.328 212.816 77.56 212.24 76.6C211.664 75.64 211.376 74.5733 211.376 73.4C211.376 71.608 211.995 70.0827 213.232 68.824C214.491 67.5653 215.995 66.936 217.744 66.936C219.536 66.936 221.051 67.5653 222.288 68.824C223.547 70.0827 224.176 71.608 224.176 73.4C224.176 75.1493 223.547 76.6533 222.288 77.912C221.051 79.1493 219.536 79.768 217.744 79.768Z" fill="#FFF0DD"/>
<path d="M43.2 76.8C43.2 78.5732 41.7673 80 40 80C38.2326 80 36.8 78.5732 36.8 76.8C36.8 74.9271 38.6667 73.7483 38.6667 69.6C38.6667 62.1304 36.9923 55.1256 30.9333 49.0667C24.8744 43.0077 18.0518 41.3333 10.4 41.3333C6.11789 41.3333 5.07291 43.2 3.2 43.2C1.42678 43.2 0 41.7673 0 40C0 38.2327 1.42678 36.8 3.2 36.8C5.07291 36.8 6.25167 38.6667 10.4 38.6667C17.8835 38.6667 24.8744 36.9923 30.9333 30.9333C36.9923 24.8744 38.6667 18.0362 38.6667 10.4C38.6667 6.11789 36.8 5.07291 36.8 3.2C36.8 1.42678 38.2327 0 40 0C41.7673 0 43.2 1.42678 43.2 3.2C43.2 5.07291 41.3333 6.25167 41.3333 10.4C41.3333 18.0401 43.0077 24.8744 49.0667 30.9333C55.1256 36.9923 62.1195 38.6667 69.6 38.6667C73.8821 38.6667 74.9271 36.8 76.8 36.8C78.5732 36.8 79.9999 38.2327 79.9999 40C79.9999 41.7673 78.5732 43.2 76.8 43.2C74.9271 43.2 73.7483 41.3333 69.6 41.3333C62.1025 41.3333 55.1256 43.0077 49.0667 49.0667C43.0077 55.1256 41.3333 62.1333 41.3333 69.6C41.3333 73.8821 43.2 74.9271 43.2 76.8Z" fill="#FF7C5C"/>
</svg>
