<?xml version="1.0" standalone="no"?>
<!DOCTYPE svg PUBLIC "-//W3C//DTD SVG 20010904//EN"
 "http://www.w3.org/TR/2001/REC-SVG-20010904/DTD/svg10.dtd">
<svg version="1.0" xmlns="http://www.w3.org/2000/svg"
 width="200.000000pt" height="200.000000pt" viewBox="0 0 200.000000 200.000000"
 preserveAspectRatio="xMidYMid meet">

<g transform="translate(0.000000,200.000000) scale(0.100000,-0.100000)"
fill="#000000" stroke="none">
<path d="M0 1000 l0 -1000 1000 0 1000 0 0 1000 0 1000 -1000 0 -1000 0 0
-1000z m1114 749 c2 -2 -5 -53 -15 -114 -23 -140 -23 -134 6 -141 18 -4 24
-11 21 -23 -3 -9 -17 -63 -32 -121 -15 -58 -29 -107 -30 -108 -1 -2 -16 -1
-33 3 l-31 7 0 255 0 255 55 -4 c30 -3 57 -7 59 -9z m-230 -26 c7 -34 36 -215
36 -225 0 -5 -12 -8 -26 -8 -20 0 -25 -4 -22 -17 64 -231 63 -225 43 -239 -10
-8 -24 -14 -31 -14 -6 0 -39 47 -73 105 -59 101 -73 116 -86 95 -12 -20 -25
-8 -98 92 l-75 103 41 27 c23 16 48 28 54 28 7 0 38 -49 68 -110 l55 -110 27
12 c16 7 31 15 36 18 4 3 -9 55 -28 116 -19 60 -35 114 -35 121 0 10 55 28 97
32 6 1 14 -11 17 -26z m410 -23 c25 -10 46 -22 46 -25 0 -3 -25 -55 -56 -116
-45 -90 -58 -109 -72 -104 -9 4 -25 10 -34 12 -10 3 -18 10 -18 15 0 23 73
238 80 238 5 0 29 -9 54 -20z m202 -124 l39 -35 -182 -182 c-181 -182 -182
-183 -203 -164 -11 10 -19 24 -18 29 2 6 29 57 61 113 57 100 59 102 81 88 22
-15 25 -12 95 85 40 55 76 100 80 100 4 0 25 -15 47 -34z m-851 -225 c96 -95
175 -177 175 -181 0 -11 -38 -42 -47 -39 -4 2 -54 30 -110 62 -100 57 -102 59
-88 81 15 22 12 25 -85 95 -55 40 -100 76 -100 79 0 13 62 83 71 80 4 -2 87
-81 184 -177z m1000 52 c14 -21 25 -42 25 -48 0 -6 -49 -37 -110 -68 -109 -58
-109 -58 -98 -85 7 -15 15 -30 18 -35 3 -4 55 9 116 28 60 19 114 35 120 35
10 0 39 -99 31 -107 -4 -3 -231 -42 -249 -43 -5 0 -8 11 -8 25 0 14 -2 25 -5
25 -2 0 -57 -14 -121 -32 -113 -30 -118 -30 -131 -13 -7 11 -13 24 -13 31 0 7
45 38 100 70 108 60 118 70 101 87 -6 6 -11 14 -11 18 0 9 190 149 202 149 4
0 19 -17 33 -37z m-1204 -119 c90 -45 109 -58 104 -72 -4 -9 -10 -25 -12 -34
-3 -10 -10 -18 -15 -18 -28 0 -238 74 -238 83 1 16 38 97 45 97 3 0 55 -25
116 -56z m209 -190 c58 -15 107 -28 108 -30 2 -1 1 -16 -3 -33 l-7 -31 -255 0
-255 0 4 55 c3 30 7 57 9 59 2 2 56 -5 119 -15 63 -10 118 -19 121 -19 4 0 10
12 13 26 5 18 12 24 24 20 9 -3 64 -17 122 -32z m1108 -149 c-3 -30 -7 -57 -9
-59 -2 -2 -56 5 -119 15 -63 10 -118 19 -122 19 -4 0 -10 -11 -14 -25 -4 -18
-11 -24 -23 -21 -9 3 -63 17 -121 32 -58 15 -107 29 -108 30 -2 1 -1 16 3 33
l7 31 255 0 255 0 -4 -55z m-988 -34 c5 -11 10 -24 10 -29 0 -6 -47 -37 -105
-71 -101 -59 -116 -73 -95 -86 20 -12 8 -25 -92 -99 l-102 -75 -28 42 c-15 23
-28 47 -28 54 0 6 49 37 110 67 l109 56 -11 28 c-7 15 -14 30 -18 34 -3 4 -55
-8 -115 -27 -61 -19 -115 -35 -121 -35 -10 0 -38 99 -30 107 3 4 228 42 249
43 4 0 7 -11 7 -25 0 -14 3 -25 8 -25 4 0 52 14 107 30 121 34 131 35 145 11z
m561 -102 c107 -60 108 -61 93 -84 -14 -22 -13 -24 86 -94 55 -40 100 -75 100
-80 0 -4 -15 -25 -34 -47 l-35 -39 -182 182 c-181 180 -183 182 -164 203 10
11 20 20 23 20 3 0 54 -27 113 -61z m275 -5 c63 -21 114 -40 114 -45 0 -13
-39 -99 -45 -99 -3 0 -55 25 -116 56 -90 45 -109 58 -104 72 4 9 10 25 12 35
7 23 8 23 139 -19z m-752 -3 c10 -11 16 -24 15 -28 -2 -4 -30 -54 -62 -110
-57 -100 -59 -102 -81 -88 -22 15 -25 12 -95 -85 -40 -55 -76 -100 -80 -100
-4 0 -25 15 -47 34 l-39 35 180 180 c99 100 183 181 186 181 3 0 14 -9 23 -19z
m332 -121 c60 -108 70 -118 87 -101 6 6 14 11 18 11 8 0 137 -172 145 -194 6
-15 -59 -66 -83 -66 -7 0 -38 49 -68 110 l-55 110 -27 -12 c-16 -7 -32 -15
-37 -19 -4 -4 8 -56 28 -116 20 -59 36 -113 36 -119 0 -10 -99 -38 -107 -30
-4 3 -42 228 -43 249 0 4 12 7 26 7 20 0 25 4 22 18 -64 230 -63 224 -43 238
10 8 24 14 31 14 7 0 38 -45 70 -100z m-208 74 l22 -6 0 -255 0 -255 -55 4
c-30 3 -57 7 -59 9 -2 2 5 54 15 114 23 140 23 134 -7 141 -14 4 -23 12 -21
18 2 6 17 62 33 124 16 61 33 112 39 112 5 0 20 -3 33 -6z m-155 -221 c9 -3
17 -10 17 -15 0 -24 -72 -238 -80 -238 -13 0 -100 39 -100 45 0 3 25 55 56
116 45 90 58 109 72 104 9 -4 25 -10 35 -12z"/>
</g>
</svg>
